<?xml version="1.0" standalone="no"?>
<!DOCTYPE svg PUBLIC "-//W3C//DTD SVG 20010904//EN"
 "http://www.w3.org/TR/2001/REC-SVG-20010904/DTD/svg10.dtd">
<svg version="1.0" xmlns="http://www.w3.org/2000/svg"
 width="752.000000pt" height="752.000000pt" viewBox="0 0 752.000000 752.000000"
 preserveAspectRatio="xMidYMid meet">

<g transform="translate(0.000000,752.000000) scale(0.100000,-0.100000)"
fill="#000000" stroke="none">
<path d="M1423 5376 l-28 -24 -3 -323 c-3 -350 -1 -369 49 -394 40 -21 74 -18
106 9 l28 24 5 274 5 273 271 5 c291 5 291 5 314 60 10 24 10 36 0 60 -25 60
-23 60 -387 60 l-332 0 -28 -24z"/>
<path d="M5384 5385 c-34 -23 -49 -69 -34 -105 23 -55 23 -55 314 -60 l271 -5
5 -273 5 -274 28 -24 c32 -27 66 -30 106 -9 50 25 52 44 49 394 l-3 323 -28
24 -28 24 -332 0 c-275 0 -336 -3 -353 -15z"/>
<path d="M2144 5039 c-125 -16 -246 -106 -301 -224 l-28 -60 0 -995 0 -995 28
-60 c56 -119 173 -206 304 -225 92 -13 3134 -13 3226 0 131 19 248 106 304
225 l28 60 0 995 0 995 -28 61 c-34 73 -111 152 -184 189 -29 14 -83 29 -125
35 -89 11 -3135 11 -3224 -1z m3278 -212 c31 -18 57 -44 75 -75 l28 -47 0
-945 0 -945 -28 -47 c-18 -31 -44 -57 -75 -75 l-47 -28 -1615 0 -1615 0 -47
28 c-31 18 -57 44 -75 75 l-28 47 0 945 0 945 27 47 c30 51 82 88 137 99 20 4
751 6 1626 5 l1590 -1 47 -28z"/>
<path d="M2843 4621 c-149 -51 -244 -177 -251 -332 -5 -95 14 -166 62 -233
l35 -49 -45 -30 c-62 -41 -140 -131 -174 -202 -56 -114 -60 -148 -60 -508 l0
-329 29 -29 29 -29 495 0 494 0 26 24 c36 34 40 73 34 413 -5 316 -9 348 -57
448 -41 86 -138 195 -207 234 -13 7 -9 17 21 62 93 142 81 325 -31 450 -26 28
-63 62 -83 74 -86 54 -220 70 -317 36z m205 -192 c82 -40 120 -138 88 -224
-74 -192 -356 -147 -356 58 0 57 14 94 48 131 55 59 142 72 220 35z m65 -573
c112 -54 184 -149 206 -270 6 -33 11 -162 11 -288 l0 -228 -65 0 -65 0 0 219
0 219 -26 31 c-33 40 -89 43 -131 7 l-28 -24 -3 -226 -3 -226 -50 0 -49 0 0
216 c0 218 -4 244 -39 271 -20 15 -76 17 -102 3 -43 -24 -49 -57 -49 -280 l0
-210 -61 0 -60 0 3 278 3 277 28 55 c50 97 126 161 232 197 62 20 185 10 248
-21z"/>
<path d="M4031 4576 c-56 -31 -67 -102 -22 -147 l29 -29 507 0 507 0 29 29
c47 48 35 118 -28 150 -34 17 -990 15 -1022 -3z"/>
<path d="M4336 4079 c-38 -30 -49 -64 -35 -106 20 -62 29 -63 409 -63 l342 0
29 29 c37 38 39 88 5 128 l-24 28 -349 3 c-345 3 -350 2 -377 -19z"/>
<path d="M4163 3600 c-23 -9 -53 -57 -53 -85 0 -30 29 -72 57 -84 21 -8 148
-11 462 -9 l433 3 24 28 c34 40 32 90 -5 128 l-29 29 -434 -1 c-238 0 -443 -4
-455 -9z"/>
<path d="M4009 3091 c-48 -48 -31 -128 32 -150 45 -15 982 -15 1012 0 63 32
75 102 28 150 l-29 29 -507 0 -507 0 -29 -29z"/>
<path d="M1439 2885 c-48 -26 -50 -47 -47 -394 l3 -323 28 -24 28 -24 332 0
c364 0 362 0 387 60 10 24 10 36 0 60 -23 55 -23 55 -314 60 l-271 5 -5 273
-5 274 -28 24 c-32 27 -69 30 -108 9z"/>
<path d="M5973 2876 l-28 -24 -5 -274 -5 -273 -271 -5 c-247 -5 -274 -7 -292
-24 -43 -38 -33 -119 17 -146 13 -6 143 -10 350 -10 l330 0 28 24 28 24 3 323
c3 350 1 369 -49 394 -40 21 -74 18 -106 -9z"/>
</g>
</svg>
